<svg xmlns="http://www.w3.org/2000/svg" viewBox="0 0 953.16 686"><defs><style>.cls-1,.cls-12,.cls-18{fill:#3cce62;}.cls-1,.cls-16,.cls-17,.cls-20,.cls-7{stroke:#fff;}.cls-1,.cls-11,.cls-14,.cls-17,.cls-20,.cls-4{stroke-miterlimit:10;}.cls-1,.cls-17,.cls-20{stroke-width:20px;}.cls-2,.cls-8{opacity:0.1;}.cls-14,.cls-3{fill:#f6b66f;}.cls-11,.cls-12,.cls-13,.cls-14,.cls-15,.cls-3,.cls-4,.cls-5{stroke:#000;}.cls-12,.cls-13,.cls-15,.cls-16,.cls-3,.cls-5,.cls-7{stroke-linecap:round;stroke-linejoin:round;}.cls-4{fill:#a86032;}.cls-11,.cls-15,.cls-16,.cls-5,.cls-7{fill:none;}.cls-17,.cls-6,.cls-9{fill:#fff;}.cls-7{stroke-width:10px;}.cls-16,.cls-7,.cls-9{opacity:0.2;}.cls-10{fill:#dda464;}.cls-13,.cls-19,.cls-20{fill:#ff2300;}.cls-15{stroke-width:3px;}.cls-16{stroke-width:5px;}</style></defs><g id="Layer_1" data-name="Layer 1"><path id="Kontur1" class="cls-1" d="M44.5,550.17c-21.62,177.21,80,271.33,485,271.33,200.06,0,405.64,3.28,411.4-172.42,5.47-167.21-121.42-355-303.4-400.58C398.44,188.68,73.5,312.5,44.5,550.17Z" transform="translate(-31.77 -145.5)"/><g class="cls-2"><path d="M540,721c-35.83,0-68.41,3.51-92.7,9.24C437.49,716.46,389.86,706,332.58,706,268.19,706,216,719.21,216,735.5S268.19,765,332.58,765c27.19,0,52.2-2.36,72-6.3,6.52,17.47,64.64,31.13,135.39,31.13,75.11,0,136-15.41,136-34.41S615.11,721,540,721Z" transform="translate(-31.77 -145.5)"/></g><g class="cls-2"><ellipse cx="761.73" cy="599.05" rx="84.5" ry="22.85"/></g><g id="Dasha"><path class="cls-3" d="M243.92,724.61c81.58,9.89,153.5-12.29,153.5-12.29,31.43-12.49,47.13-18.74,56.08-31.82,23.8-34.8,10.35-94.37-20-127a22.28,22.28,0,0,1-5-5c-2.45-3.67-2.47-6.75-4-7-1.75-.28-3.67,3.42-4,4-7,12.49-53,6-53,6-68.14-9.62-132.94,140.73-136,156-.33,1.65-1.21,6,1,10C235.33,722.57,241.55,724.32,243.92,724.61Z" transform="translate(-31.77 -145.5)"/><path class="cls-3" d="M152.28,669.13c6.5,23.74,5.36,36.78,8.41,48.89,3.49,13.9,5.71,23.25,14.26,28.52,7.62,4.7,19.3,5.56,25.67,0,4.58-4,5-18.22,5.7-34.52" transform="translate(-31.77 -145.5)"/><path class="cls-3" d="M360.34,632.46c29-29.24,33.51-50.73,31.38-65.6-3.42-23.82-25.2-39.39-22.82-71.31a182.49,182.49,0,0,1,2.85-20c5.18-26.31,12.69-35.49,8.56-39.93-4.66-5-16.13,4.56-39.93,5.71-10.86.52-48.49-17.11-71.31-17.11-28,0-45.26,8.17-77,8.55-39.25.47-53.93-18.48-59.89-11.41-5.06,6,11.4,42.79,0,77-10.85,32.53-15.7,64.88-17.12,74.16-7.4,48.45,35.7,94.84,45.64,105.53,21.24,22.86,50.11,38.52,83.23,46.52" transform="translate(-31.77 -145.5)"/><path class="cls-4" d="M326.07,571.06c-3.29,12.61-12.06,23.57-24.67,23.57-13.34,0-21.37-9.87-24.66-23.57-3-12.65,11-23.57,24.66-23.57S329.35,558.47,326.07,571.06Z" transform="translate(-31.77 -145.5)"/><path class="cls-5" d="M272.17,601.19c5.27,8.12,10,9.07,14.26,8.56C293,609,294.75,604,300.69,604s7.74,4.92,14.26,5.71c4.23.51,9-.44,14.26-8.56" transform="translate(-31.77 -145.5)"/><path class="cls-5" d="M149.28,461.32c-7.27-7.27-8.56-22.81-5.71-25.67s18.22-.64,22.82,8.56C169.24,449.92,152.13,464.18,149.28,461.32Z" transform="translate(-31.77 -145.5)"/><path class="cls-5" d="M353.14,451.9c1.34,5.3,9.77,12.56,12.91,9.42,2.85-2.85,8.1-16.82,5.64-18.28C367.71,440.66,352.14,448,353.14,451.9Z" transform="translate(-31.77 -145.5)"/><path class="cls-3" d="M320.41,680.94c-19.21,30-21.71,56.86-34.23,74.16-10.22,14.14-20.73,12.77-28.52,11.41-12.44-2.17-13.57-20.52-14.26-25.67-1.83-13.7-2.76-41.65,17.12-77" transform="translate(-31.77 -145.5)"/><path class="cls-6" d="M235.93,552c-15.45,0-28-14.49-28-32.3s12.58-32.3,28-32.3,28,14.49,28,32.3S251.38,552,235.93,552Z" transform="translate(-31.77 -145.5)"/><path d="M235.93,487.92c15.17,0,27.52,14.27,27.52,31.8s-12.35,31.8-27.52,31.8-27.53-14.26-27.53-31.8,12.35-31.8,27.53-31.8m0-1c-15.76,0-28.53,14.69-28.53,32.8s12.77,32.8,28.53,32.8,28.52-14.68,28.52-32.8-12.77-32.8-28.52-32.8Z" transform="translate(-31.77 -145.5)"/><path class="cls-6" d="M350,552c-15.45,0-28-14.49-28-32.3s12.57-32.3,28-32.3,28,14.49,28,32.3S365.47,552,350,552Z" transform="translate(-31.77 -145.5)"/><path d="M350,487.92c15.18,0,27.53,14.27,27.53,31.8s-12.35,31.8-27.53,31.8-27.52-14.26-27.52-31.8,12.35-31.8,27.52-31.8m0-1c-15.75,0-28.52,14.69-28.52,32.8s12.77,32.8,28.52,32.8,28.53-14.68,28.53-32.8-12.77-32.8-28.53-32.8Z" transform="translate(-31.77 -145.5)"/><path d="M358,531.87l-.94,0a17.36,17.36,0,0,1,.91-34.69l.93,0a17.35,17.35,0,0,1-.9,34.68Z" transform="translate(-31.77 -145.5)"/><path d="M358,496.66v1l.91,0a16.86,16.86,0,0,1-.88,33.69l-.91,0a16.86,16.86,0,0,1,.88-33.69v-1m0,0a17.86,17.86,0,0,0-.93,35.69l1,0a17.85,17.85,0,0,0,.93-35.68l-1,0Z" transform="translate(-31.77 -145.5)"/><path d="M244,531.87l-.93,0a17.36,17.36,0,0,1,.9-34.69l.94,0a17.35,17.35,0,0,1-.91,34.68Z" transform="translate(-31.77 -145.5)"/><path d="M243.92,496.66v1l.91,0a16.86,16.86,0,0,1-.88,33.69l-.91,0a16.86,16.86,0,0,1,.88-33.69v-1m0,0a17.86,17.86,0,0,0-.93,35.69l1,0a17.85,17.85,0,0,0,.93-35.68l-1,0Z" transform="translate(-31.77 -145.5)"/><circle class="cls-6" cx="321.1" cy="361.39" r="8.56"/><circle class="cls-6" cx="207.01" cy="361.39" r="8.56"/><path class="cls-5" d="M208.5,488.5a12.6,12.6,0,0,1,5.57,5.54,9.7,9.7,0,0,1,.93,4" transform="translate(-31.77 -145.5)"/><path class="cls-5" d="M218.5,482.5c2.7,2.32,4.5,4.64,4.5,8.5" transform="translate(-31.77 -145.5)"/><path class="cls-5" d="M195,489a30.69,30.69,0,0,1,13-15c13-7.37,26.43-1.69,28-1" transform="translate(-31.77 -145.5)"/><path class="cls-5" d="M328.43,479.37a30.71,30.71,0,0,1,17.74-8.9c14.82-1.85,25.07,8.54,26.26,9.78" transform="translate(-31.77 -145.5)"/><path class="cls-7" d="M205.78,449.84l1.53-.68,1.19-.56" transform="translate(-31.77 -145.5)"/><path class="cls-7" d="M148.47,509.4a92.15,92.15,0,0,1,45.06-53.8" transform="translate(-31.77 -145.5)"/><path class="cls-8" d="M300,726c17-61,75.94-109.28,86-117,0,0-4.84,25-2,52,2,19,15,50,15,50s-8,3-50,11C321.68,727.2,299.65,727.25,300,726Z" transform="translate(-31.77 -145.5)"/><ellipse class="cls-9" cx="293.5" cy="558" rx="6.5" ry="3" transform="translate(-249.04 42.88) rotate(-26.36)"/><path class="cls-10" d="M172.9,629.8a1.5,1.5,0,0,0-3,.13,1.5,1.5,0,0,0,3-.13Z" transform="translate(-31.77 -145.5)"/><path class="cls-10" d="M162.25,617.42a1.5,1.5,0,0,0-3,.13,1.5,1.5,0,0,0,3-.13Z" transform="translate(-31.77 -145.5)"/><path class="cls-10" d="M176.7,601.63a1.5,1.5,0,0,0-3,.13,1.5,1.5,0,0,0,3-.13Z" transform="translate(-31.77 -145.5)"/><path class="cls-10" d="M188.81,615.79a1.5,1.5,0,0,0-3,.13,1.5,1.5,0,0,0,3-.13Z" transform="translate(-31.77 -145.5)"/><path class="cls-10" d="M175.7,620.5a1.5,1.5,0,0,0-3,.13,1.5,1.5,0,0,0,3-.13Z" transform="translate(-31.77 -145.5)"/><path class="cls-10" d="M170.16,609.27a1.5,1.5,0,0,0-3,.13,1.5,1.5,0,0,0,3-.13Z" transform="translate(-31.77 -145.5)"/><path class="cls-10" d="M189.22,635.51a1.5,1.5,0,0,0-3,.13,1.5,1.5,0,0,0,3-.13Z" transform="translate(-31.77 -145.5)"/><path class="cls-10" d="M187.24,612.9a1.5,1.5,0,0,0-1.42-2.64,1.5,1.5,0,0,0,1.42,2.64Z" transform="translate(-31.77 -145.5)"/><path class="cls-10" d="M193.75,597.92a1.5,1.5,0,0,0-1.43-2.64,1.5,1.5,0,0,0,1.43,2.64Z" transform="translate(-31.77 -145.5)"/><path class="cls-10" d="M214.26,604.05a1.5,1.5,0,0,0-1.43-2.64,1.5,1.5,0,0,0,1.43,2.64Z" transform="translate(-31.77 -145.5)"/><path class="cls-10" d="M206.79,621.11a1.5,1.5,0,0,0-1.42-2.64,1.5,1.5,0,0,0,1.42,2.64Z" transform="translate(-31.77 -145.5)"/><path class="cls-10" d="M196.84,611.37a1.5,1.5,0,0,0-1.43-2.64,1.5,1.5,0,0,0,1.43,2.64Z" transform="translate(-31.77 -145.5)"/><path class="cls-10" d="M204.53,601.48a1.5,1.5,0,0,0-1.42-2.64,1.5,1.5,0,0,0,1.42,2.64Z" transform="translate(-31.77 -145.5)"/><path class="cls-10" d="M189.22,630.08a1.5,1.5,0,0,0-1.42-2.64,1.5,1.5,0,0,0,1.42,2.64Z" transform="translate(-31.77 -145.5)"/><path class="cls-10" d="M169.24,580a1.5,1.5,0,0,0,.48-3,1.5,1.5,0,0,0-.48,3Z" transform="translate(-31.77 -145.5)"/><path class="cls-10" d="M183.53,572.11a1.5,1.5,0,0,0,.48-3,1.5,1.5,0,0,0-.48,3Z" transform="translate(-31.77 -145.5)"/><path class="cls-10" d="M196.06,589.46a1.5,1.5,0,0,0,.48-3,1.5,1.5,0,0,0-.48,3Z" transform="translate(-31.77 -145.5)"/><path class="cls-10" d="M179.74,598.44a1.5,1.5,0,0,0,.48-3,1.5,1.5,0,0,0-.48,3Z" transform="translate(-31.77 -145.5)"/><path class="cls-10" d="M177.79,584.66a1.51,1.51,0,0,0,.48-3,1.51,1.51,0,0,0-.48,3Z" transform="translate(-31.77 -145.5)"/><path class="cls-10" d="M189.91,581.5a1.5,1.5,0,0,0,.48-3,1.5,1.5,0,0,0-.48,3Z" transform="translate(-31.77 -145.5)"/><path class="cls-10" d="M160.35,594.85a1.51,1.51,0,0,0,.48-3,1.51,1.51,0,0,0-.48,3Z" transform="translate(-31.77 -145.5)"/></g><g id="Roma"><path class="cls-3" d="M648.28,551.66c45.22-34.16,52.22-41.16,53.2-60.46.72-14.22-9.56-26.46-16.12-53.63-5.68-23.58,0-26.22-5.7-48.49-6.84-26.68-8.6-25.8-15.69-47.06-4.28-12.84,2.86-49.38-4.28-52.77-9-4.25-32.24,27.75-48.48,28.53-30,1.42-32.61-11.58-68.46-11.41-33.7.15-34.85,13.23-61.32,7.13-18.54-4.28-48.34-24.21-55.62-18.54-12.83,10,10,44.21,8.56,65.6-2.57,38.6-35.53,41.21-37.08,79.86-1.43,35.65,17.46,44.52,17.11,88.42-.33,42.08-22,47.08-28.52,88.42-9.49,59.83,22.41,134,62.75,142.61,32.83,7,48.45-34.21,91.27-28.53,37.79,5,46.18,39.86,74.16,37.08,34.29-3.4,54.41-59,59.89-74.15,23.37-64.59,5.87-126.24-5.7-156.88" transform="translate(-31.77 -145.5)"/><path class="cls-11" d="M450.15,313.74c-15.35-4.1-12.5-1.24-12.34,8.38.15,9.15,5.11,19.73,11.25,16.05,7.13-4.28,8.55-5.71,14.26-11.41C468.5,321.57,458.31,315.91,450.15,313.74Z" transform="translate(-31.77 -145.5)"/><path class="cls-11" d="M651.56,315.35c-1-15.86-5.7-8.56-14.26-2.85-7.61,5.07-12.14,8.84-5.42,11.27,8.27,3,8.88,3.29,14,5.84C651.56,332.46,652.08,323.78,651.56,315.35Z" transform="translate(-31.77 -145.5)"/><path class="cls-4" d="M601,455.78c-3.29,12.61-12.06,23.57-24.66,23.57-13.35,0-21.38-9.86-24.66-23.57-3-12.65,11-23.56,24.66-23.56S604.31,443.19,601,455.78Z" transform="translate(-31.77 -145.5)"/><path class="cls-6" d="M519,445.5c-14,0-28.09-8.49-28.09-27.47,0-17.81,12.57-32.3,28-32.3s28,14.49,28,32.3C547,434.46,535.72,445.5,519,445.5Z" transform="translate(-31.77 -145.5)"/><path d="M518.94,386.23c15.17,0,27.52,14.26,27.52,31.8,0,8.3-2.77,15.23-8,20C533.6,442.54,526.69,445,519,445s-14.63-2.46-19.53-6.93c-5.27-4.82-8.06-11.75-8.06-20,0-17.54,12.35-31.8,27.53-31.8m0-1c-15.76,0-28.53,14.68-28.53,32.8s12.84,28,28.59,28,28.46-9.86,28.46-28-12.77-32.8-28.52-32.8Z" transform="translate(-31.77 -145.5)"/><path d="M524.11,444.44l-.94,0a17.35,17.35,0,0,1,.91-34.68l.93,0a17.36,17.36,0,0,1-.9,34.69Z" transform="translate(-31.77 -145.5)"/><path d="M524.08,409.23v1l.91,0a16.86,16.86,0,0,1-.88,33.69l-.91,0a16.86,16.86,0,0,1,.88-33.69v-1m0,0a17.85,17.85,0,0,0-.93,35.68l1,0a17.86,17.86,0,0,0,.93-35.69l-1,0Z" transform="translate(-31.77 -145.5)"/><circle class="cls-6" cx="487.17" cy="273.95" r="8.56"/><path class="cls-6" d="M633,445.5c-16.75,0-28-11-28-27.47,0-17.81,12.57-32.3,28-32.3s28,14.49,28,32.3C661,434.46,649.77,445.5,633,445.5Z" transform="translate(-31.77 -145.5)"/><path d="M633,386.23c15.18,0,27.53,14.26,27.53,31.8,0,8.3-2.79,15.23-8,20-4.88,4.47-11.81,6.93-19.5,6.93s-14.61-2.46-19.48-6.93c-5.25-4.81-8-11.74-8-20,0-17.54,12.35-31.8,27.52-31.8m0-1c-15.75,0-28.52,14.68-28.52,32.8s12.75,28,28.5,28,28.55-9.86,28.55-28-12.77-32.8-28.53-32.8Z" transform="translate(-31.77 -145.5)"/><path d="M638.2,444.44l-.94,0a17.35,17.35,0,0,1,.91-34.68l.93,0a17.36,17.36,0,0,1-.9,34.69Z" transform="translate(-31.77 -145.5)"/><path d="M638.17,409.23v1l.9,0a16.86,16.86,0,0,1-.87,33.69l-.91,0a16.86,16.86,0,0,1,.88-33.69v-1m0,0a17.85,17.85,0,0,0-.93,35.68l1,0a17.86,17.86,0,0,0,.93-35.69l-1,0Z" transform="translate(-31.77 -145.5)"/><circle class="cls-6" cx="601.26" cy="273.95" r="8.56"/><path class="cls-5" d="M546,483.63c5.28,8.12,10,9.07,14.26,8.56,6.52-.79,8.32-5.71,14.26-5.71s7.74,4.92,14.26,5.71c4.24.51,9-.44,14.27-8.56" transform="translate(-31.77 -145.5)"/><line class="cls-5" x1="497.73" y1="380.5" x2="497.73" y2="530"/><rect class="cls-12" x="487.23" y="405.63" width="21" height="107.62"/><line class="cls-13" x1="520.19" y1="395" x2="520.19" y2="494"/><rect class="cls-13" x="509.69" y="405.73" width="21" height="44"/><line class="cls-5" x1="542.45" y1="367" x2="542.45" y2="483"/><rect class="cls-12" x="531.95" y="388.84" width="21" height="60.41"/><path class="cls-14" d="M449.06,600.57c1.89,3,24.13,15.14,54.19,14.26,4.65-.14,22.19-.65,31.37-14.26,7.55-11.19,7.71-28.63,0-34.23s-17.27,4.59-34.22,2.86c-13.48-1.39-24-9.49-31.38-17.12" transform="translate(-31.77 -145.5)"/><path class="cls-14" d="M623,563.49c-5.78,3.92-14.72,8.61-25.67,8.56-15.18-.08-21.86-9.24-28.52-5.71-8.55,4.54-11.7,27.16,0,39.93,9.13,10,57,8.56,74.16-8.55" transform="translate(-31.77 -145.5)"/><path class="cls-8" d="M541.5,730.5s36.09-6.2,66-25C672.41,664.69,668,537,668,537s26,59,14,126c-10.31,57.55-37,97-60,104-19,5.78-17.91,7.09-35.5-10.5C563,733,541.5,730.5,541.5,730.5Z" transform="translate(-31.77 -145.5)"/><ellipse class="cls-3" cx="452.68" cy="750.15" rx="22.98" ry="19.3" transform="translate(-167.03 -44.94) rotate(-11.04)"/><ellipse class="cls-3" cx="608.21" cy="755.94" rx="22.98" ry="19.3" transform="translate(-165.26 -15.06) rotate(-11.04)"/><ellipse class="cls-9" cx="566.5" cy="443" rx="6.5" ry="3" transform="translate(-141.21 51.99) rotate(-18.06)"/><path class="cls-7" d="M454,368.67c3.31-4.8,10.8-12.34,20-18.49s17.63-9.57,22.91-10.91" transform="translate(-31.77 -145.5)"/><g id="очки"><path class="cls-5" d="M366.5,480.5c-4,2-6,4-7,8" transform="translate(-31.77 -145.5)"/><path class="cls-5" d="M366.5,493.5c.25-.7,2.31-6.23,8-8" transform="translate(-31.77 -145.5)"/><ellipse class="cls-15" cx="479.23" cy="268.5" rx="49.5" ry="45.5"/><ellipse class="cls-15" cx="609.73" cy="268.5" rx="50" ry="45.5"/><path class="cls-15" d="M559.5,399.5c.46-.69,8.51-7.52,16-8,8.71-.55,16.77,7.67,17,8" transform="translate(-31.77 -145.5)"/></g></g><g id="Alisa"><path class="cls-3" d="M743.5,741.5c-10.41,13-20.83,17.21-30.07,10.28-3.06-2.3-5.28-12.32,7-28.16,1.53-2-1.38-6.49-1.76-7" transform="translate(-31.77 -145.5)"/><path class="cls-3" d="M841.36,735.29c8.53,9.45,18.77,8.52,23.06,5.17,3.92-3.06-.11-14.17-6.44-21.06" transform="translate(-31.77 -145.5)"/><path class="cls-3" d="M804.5,513.5c11.87,2.89,20.36,6.3,30.39,2.4,15.42-6,21.12-14.53,28.17-8.8,2.62,2.14-7,25.64,0,38.73,14.75,27.41,15.35,68.2,15.44,70.41,2,49.26-5,102.26-40.09,121.46-22,12-66.68,23.35-98.57,1.76-3.4-2.3-21-14.2-26.41-37-1.28-5.38-5-20.69,1.76-33.44,1.23-2.31,2.31-3.61,3.31-6.55,3.08-9.06-3.19-14.77-3-25a29.75,29.75,0,0,1,4-14" transform="translate(-31.77 -145.5)"/><path class="cls-3" d="M727.52,632.08a34.31,34.31,0,0,1-9.41-4.36c-11.72-8-21.82-18-21.82-35.08,0-37.08,27.86-42.7,31.71-69.69,1.77-12.37-4.61-23.23,0-24.65,8.57-2.64,13.43,8,25.69,11.62a40.17,40.17,0,0,0,8.62,1.63c10.11.7,15-1,22.93-1.22,4.48-.12,11.26,1.17,19.26,3.17" transform="translate(-31.77 -145.5)"/><path class="cls-3" d="M717.5,627.5c-1.35,1.63-10,13.59-7.59,26.37C713,670,731.1,682.6,741.6,678.52c4.9-1.91,9-7.79,8.8-14.08-.22-6-4.35-11.51-10.56-14.09" transform="translate(-31.77 -145.5)"/><path class="cls-5" d="M820.81,660.25c-6.76,15.49-20.39,22.61-29.93,19.36a16.4,16.4,0,0,1-10.56-12.32c-1.52-9.5,7.32-21.19,22.89-24.65" transform="translate(-31.77 -145.5)"/><path class="cls-4" d="M726.09,606.08c1.78,6.82,6.53,12.75,13.34,12.75,7.22,0,11.56-5.34,13.34-12.75,1.64-6.84-6-12.75-13.34-12.75S724.32,599.27,726.09,606.08Z" transform="translate(-31.77 -145.5)"/><path class="cls-6" d="M774.85,595.55c-8.23,0-14.93-7.73-14.93-17.24s6.7-17.24,14.93-17.24,14.92,7.74,14.92,17.24S783.08,595.55,774.85,595.55Z" transform="translate(-31.77 -145.5)"/><path d="M774.85,561.57c7.95,0,14.42,7.51,14.42,16.74s-6.47,16.74-14.42,16.74-14.43-7.51-14.43-16.74,6.47-16.74,14.43-16.74m0-1c-8.52,0-15.43,7.94-15.43,17.74s6.91,17.74,15.43,17.74,15.42-7.94,15.42-17.74-6.9-17.74-15.42-17.74Z" transform="translate(-31.77 -145.5)"/><path d="M770.5,584.65a9.16,9.16,0,0,1-.47-18.3h.49a9.16,9.16,0,0,1,.48,18.3Z" transform="translate(-31.77 -145.5)"/><path d="M770.52,566.84a8.66,8.66,0,0,1,.45,17.3h-.46a8.66,8.66,0,0,1-.45-17.3h.46m0-1H770a9.66,9.66,0,0,0,.51,19.3H771a9.66,9.66,0,0,0-.51-19.3Z" transform="translate(-31.77 -145.5)"/><circle class="cls-6" cx="735.83" cy="425.87" r="4.63"/><path class="cls-6" d="M713.14,595.55c-8.23,0-14.93-7.73-14.93-17.24s6.7-17.24,14.93-17.24,14.93,7.74,14.93,17.24S721.37,595.55,713.14,595.55Z" transform="translate(-31.77 -145.5)"/><path d="M713.14,561.57c8,0,14.43,7.51,14.43,16.74s-6.47,16.74-14.43,16.74-14.43-7.51-14.43-16.74,6.48-16.74,14.43-16.74m0-1c-8.52,0-15.43,7.94-15.43,17.74s6.91,17.74,15.43,17.74,15.43-7.94,15.43-17.74-6.91-17.74-15.43-17.74Z" transform="translate(-31.77 -145.5)"/><path d="M708.8,584.65a9.16,9.16,0,0,1-.48-18.3h.5a9.16,9.16,0,0,1,.47,18.3Z" transform="translate(-31.77 -145.5)"/><path d="M708.82,566.84a8.66,8.66,0,0,1,.45,17.3h-.47a8.66,8.66,0,0,1-.45-17.3h.47m0-1h-.52a9.66,9.66,0,0,0,.5,19.3h.52a9.66,9.66,0,0,0-.5-19.3Z" transform="translate(-31.77 -145.5)"/><circle class="cls-6" cx="674.63" cy="425.93" r="4.63"/><path class="cls-5" d="M754.47,622.41c-2.61,4-5,4.49-7.06,4.24-3.23-.39-4.12-2.83-7.06-2.83s-3.83,2.44-7.06,2.83c-2.09.25-4.44-.22-7-4.24" transform="translate(-31.77 -145.5)"/><path class="cls-5" d="M855.44,513.34c-1.48-1-13.34,5.14-12.16,6.89,2.2,3.27,7.32,9.72,10.23,6.81S856.93,514.36,855.44,513.34Z" transform="translate(-31.77 -145.5)"/><path class="cls-5" d="M733.72,507.07c-2.13,1.45,0,11.41,2.85,11.41s8.56-2.85,8.56-5.7S736.46,505.22,733.72,507.07Z" transform="translate(-31.77 -145.5)"/><path class="cls-3" d="M794.41,727.14c-14.64,11.29-21.08,23.54-17.61,29.92,2.79,5.13,11.31,5.27,12.32,5.28,11.8.19,23.4-10.32,29.93-26.4" transform="translate(-31.77 -145.5)"/><path class="cls-5" d="M775.59,554.11a17.83,17.83,0,0,1,15.82,6.78" transform="translate(-31.77 -145.5)"/><path class="cls-5" d="M715.5,554.5a18.62,18.62,0,0,0-10,2,18.31,18.31,0,0,0-6,5" transform="translate(-31.77 -145.5)"/><path class="cls-8" d="M865.5,551.5S875.52,632,857,681c-17.59,46.6-31.7,42.41-38,55a117.11,117.11,0,0,1-6,11s27-4,46.5-28.5c24.67-31,18.78-92,19-104C879,587,865.5,551.5,865.5,551.5Z" transform="translate(-31.77 -145.5)"/><ellipse class="cls-9" cx="735.33" cy="599" rx="4.33" ry="2" transform="translate(-190.22 136.22) rotate(-19.62)"/><path class="cls-16" d="M734.67,534.11a34.71,34.71,0,0,1,9.2-8,30.91,30.91,0,0,1,11.23-4" transform="translate(-31.77 -145.5)"/></g></g><g id="Слой_2" data-name="Слой 2"><g id="fonDaaa"><path class="cls-17" d="M248.34,337.79a15,15,0,0,1-3.35-1.2c.29-.6,4.17-.89,6.48-1.07,3.73-.28,7.26-.54,8.38-1.67a4.46,4.46,0,0,0,1.23-4.44c-.56-1.78-2.65-4.16-9.49-5.4-.14,0-14.7-2.34-19.49,4.19-2.79,3.81-1.82,10.79,2.05,14.65,2.68,2.69,5.8,3.15,8.55,3.56,2.42.36,4.7.7,6.45,2.44a5.74,5.74,0,0,1,1.57,4.14,9.06,9.06,0,0,1-2.57,6.15c-2.43,2.39-6.43,1.64-10.29.92s-8.1-1.51-10.71,1.09c-3,2.93-3,9.45,0,12.69,1.73,1.9,4.71,2.93,8.47,2.93l.87,0c6.68-.27,15.9-3.76,21.43-10.95,3.14-4.08,7.53-12.8,4-19.53C259.21,341,252.67,339.06,248.34,337.79Z" transform="translate(-31.77 -145.5)"/><path class="cls-17" d="M370.56,366.23c-1.61-9.46-8.81-22.62-20.82-29.17-3.34-1.82-11.18-6.09-17.46-3-6.91,3.39-9.1,13.84-8.84,22.5.24,8.12,2.76,17.27,7.87,19.41,3.71,1.56,8.23-.94,12.6-3.35s8.52-4.7,11.3-2.7c1.34,1,1.88,2.52,2.46,4.18.69,2,1.41,4.08,3.66,4.88a5.73,5.73,0,0,0,1.92.32,8,8,0,0,0,5.62-2.45C370.76,374.74,371.36,371,370.56,366.23Zm-37.87-13.14c0-3.68,1.27-7.11,3.06-8.16a3.87,3.87,0,0,1,1.94-.45c2.32,0,5.61,1.34,8.79,3.7,3.79,2.81,7.28,7.05,6.53,10.2-.43,1.82-2.36,3.67-5.05,4.84a11.54,11.54,0,0,1-10.21-.15C333.22,360.49,332.71,355.23,332.69,353.09Z" transform="translate(-31.77 -145.5)"/><path class="cls-17" d="M308.75,340.07c-4.43-2.55-9.31-1.46-13.62-.5-3.59.8-6.68,1.49-8.25-.39-2-2.4-.14-7.08,1.64-11.61s3.6-9.1,1.34-11.42-7.8-1.33-11.61.92c-6.74,4-11.09,13.9-11.63,26.55-.52,12.09,2.86,27.07,11.59,33.29,1.44,1,3.82,2.46,5.85,2.46a3.22,3.22,0,0,0,1.7-.44c2.22-1.35,1.59-5,.86-9.31-.84-4.93-1.8-10.52,1.25-13.78a10.35,10.35,0,0,1,7.19-2.85,8.48,8.48,0,0,1,6.1,1.87c2.3,2.19,1.81,6.11,1.33,9.9s-1,8,1.7,10.13c2.42,1.91,6.26,1.51,8.58,0,3.3-2.11,5.25-7.73,5.08-14.65S315.2,343.78,308.75,340.07Z" transform="translate(-31.77 -145.5)"/><path class="cls-17" d="M202.12,331.39h0c-3.34-1.82-11.17-6.08-17.45-3-6.91,3.38-9.1,13.84-8.85,22.5.24,8.12,2.77,17.27,7.87,19.41,3.72,1.55,8.23-.94,12.6-3.35s8.52-4.7,11.3-2.71c1.34,1,1.89,2.53,2.46,4.19.7,2,1.42,4.08,3.67,4.88a5.94,5.94,0,0,0,1.92.31,8,8,0,0,0,5.62-2.45c1.89-2.09,2.49-5.86,1.68-10.6C221.33,351.1,214.13,337.93,202.12,331.39Zm-17.05,16c0-3.68,1.27-7.12,3.06-8.16a3.74,3.74,0,0,1,1.94-.45c2.32,0,5.6,1.34,8.79,3.69,3.79,2.81,7.28,7.06,6.53,10.21-.43,1.82-2.37,3.67-5,4.83a11.53,11.53,0,0,1-10.22-.15C185.6,354.81,185.08,349.56,185.07,347.42Z" transform="translate(-31.77 -145.5)"/><path class="cls-17" d="M127.62,292c-16.31-4-34.52,1.13-44.08,8.22-4.11,3-6.37,6.24-6.54,9.24-.29,5.11,5.71,11.14,11.47,11.53,3.64.24,5.89-1.88,8.74-4.57a38.91,38.91,0,0,1,8.53-6.49c2.25-1.22,14.06-7.1,25.59-3,10.79,3.87,21,16.61,18.68,30.45-1.84,10.91-10.51,18.43-17.38,21.55-4.49,2-8.65,2.47-10.87,1.1-3.9-2.39-2.61-10.74-1.25-19.57,1.58-10.19,3.21-20.73-2.75-24.42-4-2.5-10.06-.93-13.58,2-5.67,4.77-7.9,16.13-5.68,28.94,2,11.31,7.93,24.85,18.83,28.91a21.44,21.44,0,0,0,7.48,1.27c6.22,0,13.22-2.27,19.85-6.6,12.4-8.08,20.58-21.15,21.34-34.11C167.4,312.61,144.4,296.1,127.62,292Z" transform="translate(-31.77 -145.5)"/></g><g id="Daaa"><path class="cls-18" d="M251.5,324.5c-2.44-.44-14.86-1.64-19,4-2.69,3.67-1.57,10.43,2,14,4.87,4.87,11.07,2.07,15,6,3,3,1.68,8.37-1,11-5.19,5.08-16.09-2.88-21,2-2.83,2.82-2.73,9,0,12,5.21,5.74,22.07,2.31,30-8,3.44-4.48,7.19-12.84,4-19-4.06-7.83-17.28-8.15-17-10s13-1,15-3S262.5,326.5,251.5,324.5Z" transform="translate(-31.77 -145.5)"/><path class="cls-18" d="M349.5,337.5c-3.38-1.84-10.95-6-17-3-12.24,6-10.3,37.1-1,41,7.14,3,18.05-10.27,24-6,3.19,2.29,2.25,7.67,6,9a7.11,7.11,0,0,0,7-2C374.35,370,366.38,346.7,349.5,337.5Zm4,21c-1,4.38-9.79,8.54-16,5-7.47-4.25-6-16.66-2-19C340.64,341.5,355,352,353.5,358.5Z" transform="translate(-31.77 -145.5)"/><path class="cls-18" d="M278.5,317.5c-15.45,9.12-15,48.29,0,59,.69.49,4.74,3.37,7,2,4.28-2.6-3.87-16.72,2-23,3.36-3.6,10.79-4,14-1,5,4.71-2,16.07,3,20,2.15,1.69,5.78,1.42,8,0,7.62-4.88,6.27-28.09-4-34-8.11-4.66-18.3,3.46-22-1-4.28-5.16,7.15-18.74,3-23C287.39,314.33,282.05,315.41,278.5,317.5Z" transform="translate(-31.77 -145.5)"/><path class="cls-18" d="M201.88,331.82c-3.38-1.84-10.95-6-17-3-12.24,6-10.31,37.11-1,41,7.13,3,18.05-10.26,24-6,3.18,2.29,2.24,7.67,6,9a7.08,7.08,0,0,0,7-2C226.73,364.36,218.76,341,201.88,331.82Zm4,21c-1,4.39-9.8,8.54-16,5-7.47-4.25-6-16.65-2-19C193,335.82,207.41,346.36,205.88,352.82Z" transform="translate(-31.77 -145.5)"/><path class="cls-19" d="M105.5,309.5c1.45-.79,13.92-7.33,26-3,10.91,3.91,21.41,16.65,19,31-2.88,17.16-22.59,26.94-29,23-8.82-5.42,6.8-37.29-4-44-3.83-2.38-9.69-.79-13,2-12.09,10.17-6.39,49.77,13,57,17.62,6.57,46.51-13.63,48-39,1.34-22.84-20.12-39.65-38-44-22.91-5.58-49.44,7-50,17-.28,4.92,5.62,10.64,11,11C94.53,320.91,96.55,314.36,105.5,309.5Z" transform="translate(-31.77 -145.5)"/></g><g id="fonAlll"><path class="cls-17" d="M816.48,440.21c-7.88-4.57-10.08-20.85-4.61-31.33,4.31-8.25,8.53-10.74,7.63-14.38-1-4-8.18-6.66-15-3.13-13.54,7-14,42.13-3,58.13,7.43,10.8,31.22,10.44,38,2.68,3.18-3.63,4.44-10.09,1.84-12.9C836.85,434.42,825,445.15,816.48,440.21Z" transform="translate(-31.77 -145.5)"/><path class="cls-17" d="M870.5,424.5c-.94-3.51-6.82-6.33-11-5-9.21,2.93-14.24,27.39-5,35,4,3.27,10.9,3.69,13,1,2.81-3.61-5.21-10-3-19C866.09,430,871.51,428.26,870.5,424.5Z" transform="translate(-31.77 -145.5)"/><path class="cls-17" d="M868.5,406.5c-1.51,1.42-2.85,4.05-2,6,1.36,3.12,8.07,4,12,1,1.73-1.31,3.75-4,3-6C880.33,404.31,872.38,402.84,868.5,406.5Z" transform="translate(-31.77 -145.5)"/><path class="cls-17" d="M902.65,418.83c.29-1.91,13-1,15-3s3-7-8-9c-2.44-.44-14.86-1.64-19,4-2.7,3.68-1.57,10.43,2,14,4.87,4.87,11.06,2.07,15,6,3,3,1.68,8.38-1,11-5.19,5.08-16.1-2.88-21,2-2.84,2.82-2.73,9,0,12,5.21,5.74,22.07,2.31,30-8,3.44-4.47,7.19-12.83,4-19C915.59,421,902.37,420.68,902.65,418.83Z" transform="translate(-31.77 -145.5)"/><path class="cls-17" d="M954,416.46c-3.38-1.85-10.95-6-17-3-12.24,6-10.3,37.1-1,41,7.14,3,18.06-10.27,24-6,3.19,2.28,2.25,7.66,6,9a7.11,7.11,0,0,0,7-2C978.87,449,970.9,425.65,954,416.46Zm4,21c-1,4.38-9.79,8.53-16,5-7.47-4.26-6-16.66-2-19C945.16,420.45,959.56,431,958,437.46Z" transform="translate(-31.77 -145.5)"/><path class="cls-17" d="M755.69,388.61c-21.26.38-40,60.57-29.86,68.25,3.46,2.63,12.15.49,15.64-4.26,2.63-3.6-1.24-6.61,1-13.1.45-1.3,6-8,13-8,9.3,0,12.72,1.47,15,6,4.24,8.41-1.93,14.11,2.25,17.94,3.47,3.17,10.91,3.08,14.22,0C798.06,445.11,776.48,388.24,755.69,388.61Zm10.14,28.52c-1.66,5.67-17.3,6.73-19.5,1.35-1.49-3.67,2.15-13,9.18-13.46S767,413.29,765.83,417.13Z" transform="translate(-31.77 -145.5)"/></g><g id="Alll"><path class="cls-18" d="M819.5,394.5c-1-4-8.18-6.66-15-3.13-13.54,7-14,42.13-3,58.13,7.43,10.8,31.22,10.44,38,2.68,3.18-3.63,4.44-10.09,1.84-12.9-4.51-4.86-16.35,5.87-24.88.93-7.88-4.57-10.08-20.85-4.61-31.33C816.18,400.63,820.4,398.14,819.5,394.5Z" transform="translate(-31.77 -145.5)"/><path class="cls-18" d="M870.5,424.5c-.94-3.51-6.82-6.33-11-5-9.21,2.93-14.24,27.39-5,35,4,3.27,10.9,3.69,13,1,2.81-3.61-5.21-10-3-19C866.09,430,871.51,428.26,870.5,424.5Z" transform="translate(-31.77 -145.5)"/><path class="cls-18" d="M868.5,406.5c3.88-3.66,11.83-2.19,13,1,.75,2-1.27,4.69-3,6-3.93,3-10.64,2.12-12-1C865.65,410.55,867,407.92,868.5,406.5Z" transform="translate(-31.77 -145.5)"/><path class="cls-18" d="M909.65,406.83c-2.44-.44-14.86-1.64-19,4-2.7,3.68-1.57,10.43,2,14,4.87,4.87,11.06,2.07,15,6,3,3,1.68,8.38-1,11-5.19,5.08-16.1-2.88-21,2-2.84,2.82-2.73,9,0,12,5.21,5.74,22.07,2.31,30-8,3.44-4.47,7.19-12.83,4-19-4.06-7.83-17.28-8.15-17-10s13-1,15-3S920.65,408.83,909.65,406.83Z" transform="translate(-31.77 -145.5)"/><path class="cls-18" d="M954,416.46c-3.38-1.85-10.95-6-17-3-12.24,6-10.3,37.1-1,41,7.14,3,18.06-10.27,24-6,3.19,2.28,2.25,7.66,6,9a7.11,7.11,0,0,0,7-2C978.87,449,970.9,425.65,954,416.46Zm4,21c-1,4.38-9.79,8.53-16,5-7.47-4.26-6-16.66-2-19C945.16,420.45,959.56,431,958,437.46Z" transform="translate(-31.77 -145.5)"/><path class="cls-19" d="M755.69,388.61c-21.26.38-40,60.57-29.86,68.25,3.46,2.63,12.15.49,15.64-4.26,2.63-3.6-1.24-6.61,1-13.1.45-1.3,6-8,13-8,9.3,0,12.72,1.47,15,6,4.24,8.41-1.93,14.11,2.25,17.94,3.47,3.17,10.91,3.08,14.22,0C798.06,445.11,776.48,388.24,755.69,388.61Zm10.14,28.52c-1.66,5.67-17.3,6.73-19.5,1.35-1.49-3.67,2.15-13,9.18-13.46S767,413.29,765.83,417.13Z" transform="translate(-31.77 -145.5)"/></g><g id="fonRooo"><path class="cls-20" d="M501.92,201.5c-10.87,4.75-12.46,17.95-12.5,18.77-1.25,26,24.85,28.69,34.91,21.69,9.77-6.8,11.21-20.1,6.26-29.43C525.13,202.28,512.07,197.06,501.92,201.5Zm13.72,32.74c-6.13,1.27-11.64-1.32-13.95-6.62-3.1-7.08-.86-15.59,6.54-16.85,6.33-1.09,13.25,3.94,15,10.54S522.32,232.85,515.64,234.24Z" transform="translate(-31.77 -145.5)"/><path class="cls-20" d="M593.5,207.5c-7.91.73-9.24,22-16,22-7.32,0-2.78-27.85-13-27-12,1-28,24-27,39,.36,5.37,7.83,5.65,13,2,3.85-2.72,6.73-9.43,10-11,6.21-3,9.4,11.9,18,10,7.64-1.69,9.93-12.85,13-12,3.67,1,0,16.87,5,19,3.26,1.39,9.44-3.41,12-9C614.58,227.22,601.5,206.76,593.5,207.5Z" transform="translate(-31.77 -145.5)"/><path class="cls-20" d="M644.64,209c-3.38-1.84-10.95-6-17-3-12.24,6-10.3,37.1-1,41,7.14,3,18.05-10.27,24-6,3.19,2.29,2.25,7.67,6,9a7.11,7.11,0,0,0,7-2C669.49,241.54,661.52,218.21,644.64,209Zm4,21c-1,4.38-9.79,8.54-16,5-7.47-4.26-6-16.66-2-19C635.78,213,650.18,223.54,648.64,230Z" transform="translate(-31.77 -145.5)"/><path class="cls-20" d="M455.5,203.5c1.05-8.91,16.58-7.67,19-17,2.82-10.85-10.33-31-29-31-14.4,0-26.86,12-28,23-1.11,10.8,9.24,15,11,29,1.45,11.47-10.37,20.22-9,29,.85,5.47,10.67,6.94,16,5,7.75-2.82,7.37-15.1,13-16,7.68-1.23,15.31,17.83,20,19,4,1,13.36-7.56,13-13C480.5,216.5,454.5,211.93,455.5,203.5Zm-1.59-20.95c-.67,5.26-5.07,10.44-9.75,10.45-6.35,0-12.52-9.49-9.75-16.55,1.63-4.15,6.53-7.9,11.52-7C451.67,170.55,454.57,177.28,453.91,182.55Z" transform="translate(-31.77 -145.5)"/></g><g id="Rooo"><path class="cls-18" d="M530.59,212.53c-5.46-10.25-18.52-15.47-28.67-11-10.87,4.75-12.46,17.95-12.5,18.77-1.25,26,24.85,28.69,34.91,21.69C534.1,235.16,535.54,221.86,530.59,212.53Zm-15,21.71c-6.13,1.27-11.64-1.32-13.95-6.62-3.1-7.08-.86-15.59,6.54-16.85,6.33-1.09,13.25,3.94,15,10.54S522.32,232.85,515.64,234.24Z" transform="translate(-31.77 -145.5)"/><path class="cls-18" d="M560.5,232.5c-3.27,1.57-6.15,8.28-10,11-5.17,3.65-12.64,3.37-13-2-1-15,15-38,27-39,10.22-.85,5.68,27,13,27,6.76,0,8.09-21.27,16-22s21.08,19.72,15,33c-2.56,5.59-8.74,10.39-12,9-5-2.13-1.33-18-5-19-3.07-.85-5.36,10.31-13,12C569.9,244.4,566.71,229.51,560.5,232.5Z" transform="translate(-31.77 -145.5)"/><path class="cls-18" d="M644.64,209c-3.38-1.84-10.95-6-17-3-12.24,6-10.3,37.1-1,41,7.14,3,18.05-10.27,24-6,3.19,2.29,2.25,7.67,6,9a7.11,7.11,0,0,0,7-2C669.49,241.54,661.52,218.21,644.64,209Zm4,21c-1,4.38-9.79,8.54-16,5-7.47-4.26-6-16.66-2-19C635.78,213,650.18,223.54,648.64,230Z" transform="translate(-31.77 -145.5)"/><path class="cls-19" d="M481.5,231.5c-1-15-27-19.57-26-28,1.05-8.91,16.58-7.67,19-17,2.82-10.85-10.33-31-29-31-14.4,0-26.86,12-28,23-1.11,10.8,9.24,15,11,29,1.45,11.47-10.37,20.22-9,29,.85,5.47,10.67,6.94,16,5,7.75-2.82,7.37-15.1,13-16,7.68-1.23,15.31,17.83,20,19C472.5,245.5,481.86,236.94,481.5,231.5Zm-27.59-48.95c-.67,5.26-5.07,10.44-9.75,10.45-6.35,0-12.52-9.49-9.75-16.55,1.63-4.15,6.53-7.9,11.52-7C451.67,170.55,454.57,177.28,453.91,182.55Z" transform="translate(-31.77 -145.5)"/></g></g></svg>