<?xml version="1.0" encoding="utf-8"?>
<!-- Generator: Adobe Illustrator 24.1.2, SVG Export Plug-In . SVG Version: 6.00 Build 0)  -->
<svg version="1.1" id="Слой_1" xmlns="http://www.w3.org/2000/svg" xmlns:xlink="http://www.w3.org/1999/xlink" x="0px" y="0px"
	 viewBox="0 0 32 32" style="enable-background:new 0 0 32 32;" xml:space="preserve">
<style type="text/css">
	.st0{fill:#FFFFFF;}
	.st1{fill:#F00500;}
	.st2{fill:none;}
	.st3{fill:#FFA409;}
	.st4{fill:#FF9300;}
	.st5{fill:#FF8300;}
</style>
<g>
	<path class="st0" d="M22,18.2c-0.7-0.4-1.5-0.5-2.2-0.6c-0.6,0-1.6-0.4-1.6-1.6c0-0.9,0.7-1.6,1.6-1.7c0.8,0,1.5-0.1,2.2-0.6
		c1.7-1,2.5-3.1,1.8-5s-2.6-3-4.5-2.7s-3.4,2.1-3.4,4.1c0,0.8,0.3,1.6,0.6,2.2c0.3,0.6,0.5,1.7-0.6,2.3c-0.8,0.5-1.7,0.2-2.2-0.6
		c-0.4-0.7-0.9-1.3-1.6-1.7c-1.7-1-3.9-0.6-5.2,0.9c-1.3,1.6-1.3,3.8,0,5.4c1.3,1.6,3.4,1.9,5.2,0.9c0.7-0.4,1.2-1,1.6-1.7
		c0.3-0.5,1.2-1.2,2.2-0.6c0.8,0.5,1,1.5,0.6,2.3c-0.4,0.7-0.6,1.4-0.6,2.2c0,2,1.4,3.8,3.4,4.1s3.9-0.8,4.5-2.7
		C24.4,21.3,23.7,19.2,22,18.2L22,18.2z"/>
</g>
<g id="Group_938" transform="translate(-953.348 -232.003)">
	<g id="Group_931">
		<path id="Path_8573" class="st1" d="M976.5,235.1c-0.8,0.8-1.5,1.7-2.2,2.6l-0.2-0.1c-1.2-0.4-2.4-0.6-3.7-0.7c-0.4,0-1.8,0-2.2,0
			c-1.4,0.1-2.4,0.3-3.6,0.7c0,0-0.1,0-0.1,0c-0.7-0.9-1.4-1.8-2.3-2.6c4-2,8.7-2.3,12.9-0.7c0.4,0.2,0.9,0.4,1.3,0.6L976.5,235.1z"
			/>
		<path id="Path_8574" class="st1" d="M984,253.4c-0.6,1.7-1.5,3.3-2.7,4.7c-0.6,0.8-1.4,1.4-2.1,2.1c-1.8,1.4-3.9,2.5-6.1,3
			c-2.5,0.6-5,0.6-7.5,0c-2.2-0.5-4.3-1.6-6.1-3c-0.8-0.6-1.5-1.3-2.1-2.1c-3.4-4-4.4-9.5-2.7-14.5c0.3-0.9,0.7-1.8,1.2-2.7
			c0.2-0.4,0.5-0.8,0.6-1c0.5,2,1,3.7,1.2,4.4c0,0,0,0.1-0.1,0.1c-1.1,2.3-1.7,4.5-1.9,6.8c0,0,0,0.1,0,0.1c0,0.7,0,1,0.1,1.5
			c0.4,1.4,1.5,2.9,3.2,4.4c2.9,2.4,6.7,4.2,9.7,4.4c3.1,0.2,7.6-1.6,10.6-4.2c0.5-0.4,0.9-0.9,1.3-1.3c0.3-0.3,0.7-0.9,0.7-0.9
			c0,0,0,0,0,0c0,0,0,0,0,0c0,0,0,0,0,0s0,0,0,0s0,0,0,0c0,0,0,0,0,0s0,0,0,0s0,0,0,0c0,0,0,0,0,0s0,0,0,0c0,0,0-0.1,0.1-0.1
			c0.1-0.1,0.4-0.6,0.4-0.7c0.3-0.6,0.4-1.2,0.5-1.7c0-0.3,0.1-0.8,0-0.9c0,0,0-0.1,0-0.1c0-0.1,0-0.2,0-0.4c0-0.2,0-0.5,0-0.7
			c-0.2-2.2-0.8-4-1.8-5.9c0-0.1-0.1-0.1-0.1-0.2c0,0,0,0,0,0l0,0c0.1-0.4,0.8-2.3,1.2-4.5l0,0l0.1,0.1c0.1,0.2,0.5,0.7,0.6,0.9
			c0.7,1.1,1.2,2.3,1.6,3.5C985.1,247.3,985,250.4,984,253.4z"/>
		<path id="Path_8575" d="M977.7,247.6c0,0.1-0.2,0.3-0.5,0.5c-0.7,0.5-1.9,0.9-3.1,1.2c-0.7,0.1-1.4,0.1-1.6,0
			c-0.1-0.1-0.2-0.1-0.1-0.3c0.1-0.4,0.4-0.8,0.9-1.1c0.3-0.2,1.3-0.8,1.8-1.1c0.8-0.4,1.5-0.7,1.9-0.8c0.1,0,0.3,0,0.4,0
			c0.1,0,0.2,0.3,0.2,0.6C977.8,246.8,977.8,247.5,977.7,247.6z"/>
		<path id="Path_8576" d="M966.4,249.2c0,0.1-0.2,0.1-0.3,0.1s-0.7,0-0.9,0c-1-0.1-2.1-0.4-2.9-0.8c-0.4-0.2-0.8-0.4-1-0.7l-0.1-0.1
			l0-0.2c0-0.3,0-0.8,0-1c0-0.1,0.1-0.3,0.1-0.4c0,0,0,0,0.2,0c0.2,0,0.4,0,0.7,0.1c0.6,0.2,1.5,0.6,2.6,1.3
			c0.9,0.5,1.2,0.8,1.5,1.1C966.3,248.8,966.4,249.1,966.4,249.2z"/>
		<path id="Path_8577" d="M973.2,255.9c0,0-0.1,0.2-0.1,0.5s-0.1,0.5-0.1,0.5c-0.1,0-0.1,0-0.2,0h-0.2l-0.2,0.5
			c-0.1,0.3-0.2,0.5-0.2,0.6l0,0.1l-0.1-0.2l-0.1-0.2v-1.3l0,0c-0.1,0-0.7,0.1-0.9,0.1c-1.1,0.1-2.1,0.1-3.2-0.1c-0.2,0-0.3,0-0.3,0
			s0,0.3,0,0.7l0,0.7l-0.1,0.1c0,0.1-0.1,0.1-0.1,0.1c0,0-0.1-0.1-0.2-0.3c-0.1-0.2-0.2-0.5-0.3-0.7l0-0.1l-0.1,0l-0.1,0l0-0.2
			c0-0.1,0-0.2-0.1-0.3l0-0.2l-0.1-0.1c-0.1-0.1-0.1-0.1-0.2-0.1c0,0,0-0.1,0-0.1v-0.1l0.6,0l0.6,0l0,0.1l0,0.1l0.2,0
			c0.1,0,0.5,0,0.8,0l0.6,0l0.2-0.2l0.2-0.2h0.2l0-0.5l0-0.5l-0.3-0.1c-0.9-0.4-1.4-0.8-1.5-1.3c0-0.1,0-0.1,0-0.6
			c0-0.5,0-0.5,0-0.6c0.1-0.2,0.3-0.4,0.5-0.5c0.1,0,0.3,0,1.4,0l1.3,0l0.1,0.1c0.2,0.1,0.3,0.1,0.4,0.3c0.1,0.2,0.1,0.3,0.1,0.6
			c0,0.4,0,0.8-0.1,0.9c-0.1,0.2-0.2,0.4-0.3,0.6c-0.2,0.3-0.7,0.6-1.1,0.8l-0.1,0l0,0.5l0,0.5l0.1,0l0.1,0l0.1,0.2l0.1,0.2h0.6
			c0.4,0,0.7,0,0.7,0c0,0,0.1,0,0.1-0.1l0.1-0.1h0.6C973.1,255.9,973.2,255.9,973.2,255.9z"/>
		<path id="Path_8578" d="M970.7,257.3c-0.1,0.1-0.2,0.1-0.2,0.1c0,0-0.1-0.1-0.2-0.1l-0.1-0.1l-0.1,0.1c-0.3,0.3-0.3,0.3-0.4,0.3
			c-0.1,0-0.2,0-0.3-0.3c-0.1-0.1-0.2-0.2-0.2-0.2s-0.1,0-0.1,0l-0.1,0l-0.1,0.1l-0.1,0.1l-0.1,0c-0.1,0-0.2-0.1-0.3-0.1l-0.1-0.1
			v-0.3l1.3,0l1.3,0l0,0.1C970.9,257.2,970.9,257.2,970.7,257.3z"/>
	</g>
	<path id="Path_8579" class="st0" d="M982.7,251.4c0,0,0-0.1,0-0.1c-1.2-0.1-4.5-0.2-7.5,2.3c0,0-1-4.5-5.6-4.5
		c-4.6,0-6.3,4.5-6.3,4.5c-2.6-2.8-6.1-2.6-7.3-2.4c0,0,0,0.1,0,0.1c0,0.7,0,1,0.1,1.5c0.4,1.4,1.5,2.9,3.2,4.4
		c2.9,2.4,6.7,4.2,9.7,4.4c3.1,0.2,7.6-1.6,10.6-4.2c0.5-0.4,0.9-0.9,1.3-1.3c0.3-0.3,0.7-0.9,0.7-0.9c0,0,0,0,0,0c0,0,0,0,0,0
		c0,0,0,0,0,0s0,0,0,0s0,0,0,0c0,0,0,0,0,0s0,0,0,0c0,0,0,0,0,0s0,0,0,0s0,0,0,0c0,0,0-0.1,0.1-0.1c0.1-0.1,0.4-0.6,0.4-0.7
		c0.3-0.6,0.4-1.2,0.5-1.7C982.7,252,982.7,251.6,982.7,251.4z M970.7,257.3c-0.1,0.1-0.2,0.1-0.2,0.1c0,0-0.1-0.1-0.2-0.1l-0.1-0.1
		l-0.1,0.1c-0.3,0.3-0.3,0.3-0.4,0.3c-0.1,0-0.2,0-0.3-0.3c-0.1-0.1-0.2-0.2-0.2-0.2s-0.1,0-0.1,0l-0.1,0l-0.1,0.1l-0.1,0.1l-0.1,0
		c-0.1,0-0.2-0.1-0.3-0.1l-0.1-0.1v-0.3l1.3,0l1.3,0l0,0.1C970.9,257.2,970.9,257.2,970.7,257.3z M973.1,256.5
		c-0.1,0.3-0.1,0.5-0.1,0.5c-0.1,0-0.1,0-0.2,0h-0.2l-0.2,0.5c-0.1,0.3-0.2,0.5-0.2,0.6l0,0.1l-0.1-0.2l-0.1-0.2v-1.3l0,0
		c-0.1,0-0.7,0.1-0.9,0.1c-1.1,0.1-2.1,0.1-3.2-0.1c-0.2,0-0.3,0-0.3,0s0,0.3,0,0.7l0,0.7l-0.1,0.1c0,0.1-0.1,0.1-0.1,0.1
		c0,0-0.1-0.1-0.2-0.3c-0.1-0.2-0.2-0.5-0.3-0.7l0-0.1l-0.1,0l-0.1,0l0-0.2c0-0.1,0-0.2-0.1-0.3l0-0.2l-0.1-0.1
		c-0.1-0.1-0.1-0.1-0.2-0.1c0,0,0-0.1,0-0.1v-0.1l0.6,0l0.6,0l0,0.1l0,0.1l0.2,0c0.1,0,0.5,0,0.8,0l0.6,0l0.2-0.2l0.2-0.2h0.2l0-0.5
		l0-0.5l-0.3-0.1c-0.9-0.4-1.4-0.8-1.5-1.3c0-0.1,0-0.1,0-0.6c0-0.5,0-0.5,0-0.6c0.1-0.2,0.3-0.4,0.5-0.5c0.1,0,0.3,0,1.4,0l1.3,0
		l0.1,0.1c0.2,0.1,0.3,0.1,0.4,0.3c0.1,0.2,0.1,0.3,0.1,0.6c0,0.4,0,0.8-0.1,0.9c-0.1,0.2-0.2,0.4-0.3,0.6c-0.2,0.3-0.7,0.6-1.1,0.8
		l-0.1,0l0,0.5l0,0.5l0.1,0l0.1,0l0.1,0.2l0.1,0.2h0.6c0.4,0,0.7,0,0.7,0c0,0,0.1,0,0.1-0.1l0.1-0.1h0.6c0.4,0,0.6,0,0.6,0
		C973.2,256,973.1,256.2,973.1,256.5z"/>
	<path id="Path_8580" class="st2" d="M955.9,251.3c-0.3,0-0.5,0.1-0.5,0.1"/>
	<path id="Path_8581" class="st2" d="M983.1,251.4c0,0-0.2,0-0.4-0.1"/>
	<path id="Path_8582" class="st3" d="M982.7,251c0-0.2,0-0.5,0-0.7c-0.2-2.2-0.8-4-1.8-5.9c0-0.1-0.1-0.1-0.1-0.2c0,0,0,0,0,0l0,0
		c0.1-0.4,0.8-2.3,1.2-4.5c0.7-2.9,1.1-6.3-0.2-7.3c0,0-2.2-0.2-5.2,2.7c-0.8,0.8-1.5,1.7-2.2,2.6l-0.2-0.1
		c-1.2-0.4-2.4-0.6-3.7-0.7c-0.4,0-1.8,0-2.2,0c-1.4,0.1-2.4,0.3-3.6,0.7c0,0-0.1,0-0.1,0c-0.7-0.9-1.4-1.8-2.3-2.6
		c-3.1-2.9-5.4-2.8-5.4-2.8c-1.4,1.1-0.9,4.6-0.2,7.6c0.5,2,1,3.7,1.2,4.4c0,0,0,0.1-0.1,0.1c-1.1,2.3-1.7,4.5-1.9,6.8
		c1.3-0.2,4.7-0.4,7.3,2.4c0,0,1.7-4.5,6.3-4.5c4.6,0,5.6,4.5,5.6,4.5c3.1-2.5,6.4-2.4,7.5-2.3C982.7,251.2,982.7,251.1,982.7,251z
		 M958.7,242.5c0,0-1.8-4.5-1.3-7.1l0,0c0.1-0.4,0.2-0.8,0.4-1.1c0,0,2,0.2,5.3,3.9c0,0-0.6,0.3-1.5,0.9c0,0,0,0,0,0
		C960.8,239.9,959.6,241,958.7,242.5L958.7,242.5z M966.4,249.2c0,0.1-0.2,0.1-0.3,0.1s-0.7,0-0.9,0c-1-0.1-2.1-0.4-2.9-0.8
		c-0.4-0.2-0.8-0.4-1-0.7l-0.1-0.1l0-0.2c0-0.3,0-0.8,0-1c0-0.1,0.1-0.3,0.1-0.4c0,0,0,0,0.2,0c0.2,0,0.4,0,0.7,0.1
		c0.6,0.2,1.5,0.6,2.6,1.3c0.9,0.5,1.2,0.8,1.5,1.1C966.3,248.8,966.4,249.1,966.4,249.2z M977.7,247.6c0,0.1-0.2,0.3-0.5,0.5
		c-0.7,0.5-1.9,0.9-3.1,1.2c-0.7,0.1-1.4,0.1-1.6,0c-0.1-0.1-0.2-0.1-0.1-0.3c0.1-0.4,0.4-0.8,0.9-1.1c0.3-0.2,1.3-0.8,1.8-1.1
		c0.8-0.4,1.5-0.7,1.9-0.8c0.1,0,0.3,0,0.4,0c0.1,0,0.2,0.3,0.2,0.6C977.8,246.8,977.8,247.5,977.7,247.6z M976.9,239.2L976.9,239.2
		c-0.8-0.7-1.4-1-1.4-1c3.2-3.7,5.2-3.9,5.2-3.9c0.2,0.3,0.4,0.7,0.4,1.1l0,0c0.4,2.6-1.3,7.1-1.3,7.1
		C979.1,241.2,978.1,240.1,976.9,239.2L976.9,239.2z"/>
	<path id="Path_8583" class="st2" d="M974.3,237.7C974.3,237.7,974.3,237.7,974.3,237.7"/>
	<path id="Path_8584" class="st2" d="M980.7,244.2c0,0.1,0,0.1,0,0.1"/>
	<g id="Group_934">
		<g id="Group_933">
			<g id="Group_932">
				<path id="Path_8585" class="st4" d="M981.1,235.4c-0.4,0-2.2-0.1-4.2,3.7l0,0c-0.8-0.6-1.4-0.9-1.4-0.9c3.2-3.7,5.2-3.9,5.2-3.9
					C980.9,234.6,981,235,981.1,235.4z"/>
			</g>
			<path id="Path_8586" class="st5" d="M979.8,242.5c-0.7-1.3-1.7-2.4-2.9-3.4c2-3.8,3.8-3.8,4.2-3.7l0,0
				C981.6,238,979.8,242.5,979.8,242.5z"/>
			<path id="Path_8587" class="st5" d="M981.2,235.5C981.2,235.5,981.1,235.5,981.2,235.5L981.2,235.5z"/>
		</g>
	</g>
	<path id="Path_8588" class="st2" d="M964.6,237.9c0-0.1-0.1-0.1-0.1-0.2"/>
	<path id="Path_8589" class="st2" d="M957.8,244.4c0.1,0.2,0.1,0.3,0.1,0.3"/>
	<g id="Group_937">
		<g id="Group_936">
			<g id="Group_935">
				<path id="Path_8590" class="st4" d="M963.2,238.2c0,0-0.6,0.3-1.5,0.9c0,0,0,0,0,0c-2.1-3.8-3.9-3.8-4.3-3.7
					c0.1-0.4,0.2-0.8,0.4-1.1C957.8,234.3,959.9,234.5,963.2,238.2z"/>
			</g>
			<path id="Path_8591" class="st5" d="M961.7,239.2c-0.9,0.7-2.1,1.8-3,3.4c0,0-1.8-4.5-1.3-7.1l0,0
				C957.8,235.4,959.6,235.4,961.7,239.2z"/>
			<path id="Path_8592" class="st5" d="M957.4,235.4C957.4,235.5,957.3,235.5,957.4,235.4L957.4,235.4z"/>
		</g>
	</g>
	<path id="Path_8593" class="st0" d="M974.9,245c0,0-1.5,0.1-1.4-1.1c0.2-1.2,1.4-1.4,1.7-1.3c0.3,0,1.7,0.5,1.4,1.5
		c-0.2,1-0.6,0.8-0.8,0.9C975.8,245.1,974.9,245,974.9,245z"/>
	<path id="Path_8594" class="st0" d="M963.6,245c0,0-1.5,0.1-1.4-1.1c0.2-1.2,1.4-1.4,1.7-1.3s1.7,0.5,1.4,1.5s-0.6,0.8-0.8,0.9
		C964.4,245.1,963.6,245,963.6,245z"/>
</g>
</svg>
