<?xml version="1.0" encoding="utf-8"?>
<!-- Generator: Adobe Illustrator 24.1.2, SVG Export Plug-In . SVG Version: 6.00 Build 0)  -->
<svg version="1.1" id="Слой_1" xmlns="http://www.w3.org/2000/svg" xmlns:xlink="http://www.w3.org/1999/xlink" x="0px" y="0px"
	 viewBox="0 0 32 32" style="enable-background:new 0 0 32 32;" xml:space="preserve">
<style type="text/css">
	.st0{fill:#F70012;}
	.st1{fill:#FFFFFF;}
</style>
<g>
	<circle class="st0" cx="16" cy="16" r="16"/>
	<path class="st1" d="M24.7,12.3c-0.8-0.6-1.7-1.2-2.5-1.8c0,0,0,0-0.1,0c-0.1-0.1-0.2-0.1-0.3-0.2l0,0c-2.2-0.5-4.5-1.1-6.7-1.7
		l-6-1.5L9,7.1C8.8,7,8.6,7,8.4,7C8.3,7,8.3,7,8.2,7.1l-0.1,0C8.1,7.2,8,7.3,8,7.4l0,0v0.2l0,0c1.3,3.6,2.6,7.2,3.8,10.7
		c1,2.7,2,5.5,2.9,8.3c0.1,0.2,0.2,0.3,0.4,0.3h0c0.2,0,0.4-0.1,0.5-0.3l3.7-5.4c0.9-1.3,1.8-2.6,2.7-4l1.1-1.6
		c0.6-0.9,1.2-1.8,1.8-2.7l0,0v-0.1C25,12.8,25,12.4,24.7,12.3 M20.5,14.2c-0.9,0.5-1.7,0.9-2.6,1.4l1.5-1.7c0.6-0.7,1.3-1.4,2-2.1
		l0,0c0.1-0.1,0.1-0.1,0.2-0.2c0-0.1,0.1-0.1,0.2-0.2c0.3,0.2,0.7,0.5,1,0.7c0.2,0.2,0.5,0.3,0.7,0.5C22.5,13.2,21.5,13.7,20.5,14.2
		 M18.2,14c-0.7,0.7-1.3,1.5-2,2.2c-1.3-1.6-2.6-3.2-4-4.9l-1.8-2.2l0,0c-0.1-0.2-0.3-0.3-0.4-0.5C10,8.6,9.9,8.5,9.8,8.4
		c0.5,0.1,1.1,0.3,1.6,0.4c0.5,0.1,1,0.2,1.4,0.4l8,2C20,12.1,19.1,13.1,18.2,14 M15.9,23.1c0.1-0.5,0.1-1,0.2-1.5
		c0-0.4,0.1-0.8,0.1-1.2c0.1-0.6,0.1-1.3,0.2-1.9l0-0.1c0-0.4,0.1-0.8,0.1-1.2c0.1,0,0.1-0.1,0.2-0.1c0.1,0,0.1-0.1,0.2-0.1
		c1.1-0.6,2.1-1.1,3.2-1.7c1.1-0.6,2.2-1.1,3.2-1.7c-1,1.4-2,2.9-2.9,4.3c-0.8,1.2-1.7,2.5-2.5,3.7c-0.3,0.5-0.7,1-1,1.5
		c-0.4,0.5-0.7,1.1-1.1,1.7C15.8,24.3,15.9,23.7,15.9,23.1 M9.5,9.5C9.4,9.3,9.4,9.2,9.3,9c1.2,1.5,2.5,3.1,3.7,4.6
		c0.6,0.8,1.3,1.5,1.9,2.3c0.1,0.1,0.3,0.3,0.4,0.5c0.2,0.2,0.3,0.4,0.5,0.6c-0.1,0.5-0.1,1-0.2,1.4c0,0.3-0.1,0.7-0.1,1v0
		c0,0.2,0,0.4-0.1,0.6l-0.1,0.9l0,0c-0.1,0.9-0.2,1.9-0.3,2.8c0,0.4-0.1,0.8-0.1,1.2c0-0.1-0.1-0.1-0.1-0.2
		c-0.1-0.2-0.1-0.4-0.2-0.6l-0.5-1.4L9.5,9.5"/>
</g>
</svg>
