<svg id="Слой_1" data-name="Слой 1" xmlns="http://www.w3.org/2000/svg" viewBox="0 0 489.74 845.25"><defs><style>.cls-1,.cls-2{stroke:#000;stroke-miterlimit:10;}.cls-2{fill:#fff;}</style></defs><path class="cls-1" d="M530.49,787.27c1.56-25.4,53.47-25.26,102.13-60.65,60-43.67,92.31-124.86,89.37-197.88-.6-14.83-4.21-104.36-63.84-153.2-57.58-47.17-89.66-73.45-114.9-86.18-3.66-1.84-15.93-7.82-16-15.95,0-6.67,8.16-13.26,16-16,21.72-7.52,39.9-4.79,67,16,11.5,8.79,35.53-7.23,31.91-12.77-23.93-36.71-75.87-26.14-76.6-41.49C564,185.63,614,185.7,611.87,172.87c-3.19-19.15-19.15-19.15-55.85-1.6-19.93,9.53-31.25,19.17-35.11,16-6-5-15.3-23.45-1.6-39.9,16-19.15,24.74-37,6.39-44.68-38.3-16-44.57,74.27-59.05,65.43-8.46-5.17-17.57-39.26-52.66-46.28-63.83-12.77-70.22,44.68-31.92,35.11,42.12-10.53,59.58,14.85,46.28,39.9-6.39,12-13.31,12.42-19.15,22.34-15.92,27-5.11,77.07,22.34,92.56,24.74,14,53.73-5.37,71.82,14.36,2.16,2.36,6,6.7,6.38,12.77,1.09,19.07-33.33,43.31-63.83,41.49-11.58-.7-15.75-1.9-28.73-3.19-31.92-3.2-32.14,9.09-31.92,15.95.43,13.36,71.12,38.49,121.29,12.77,26.15-13.41,38.88-36.61,47.87-31.92,7.41,3.87,9.87,25.39,0,38.3-16.7,21.85-12.54,14.6-63.83,35.11-31.92,12.77-51.07-12.76-57.45,9.58-3.29,11.51,16.91,26.64,35.11,31.91,21.19,6.15,36.53-2.25,114.9-31.91,16.64-6.3,20.59-12.08,25.53-9.58,17.65,8.95,16.23,88.1-25.53,134-51,56.1-167.63,68.79-181.93,70.22-19.45,1.94-34.63,1.92-41.49,12.77-20.66,32.69,63,118.75,47.88,134.05-6.71,6.76-25.73-7.38-38.3,3.19-7.94,6.67-9.24,19.76-6.39,28.72,7.13,22.41,46.16,37.68,70.22,22.34,17.11-10.9,22.16-34.43,19.15-51.06-2.82-15.56-11.33-17.58-25.53-44.69-10.28-19.59-18.93-36.1-12.77-44.68,1.53-2.14,6.62-7.45,51.07,0,31,5.19,60.13,10.08,60.64,19.15.58,10.23-36.15,9.83-44.69,31.92-8.27,21.41,15.22,50.37,28.73,67,26.94,33.22,54.48,45.81,51.07,54.26-4,9.86-42.61-4.51-51.07,9.58-6.47,10.77,6.84,34.61,25.53,44.68,26.07,14,64.64,2.41,73.41-19.15,6.78-16.64-5.71-35.5-22.34-60.64C554.77,811.38,529.38,805.16,530.49,787.27Z" transform="translate(-232.93 -100.25)"/><path class="cls-1" d="M487.13,419.55c-50.85-57.95-134.66-83.39-221.3-10.92-66.32,55.46-15.37,104,16.48,149.48,42.15,60.12,100.37,85.58,194.68,14.68C556,513.36,529.24,467.53,487.13,419.55Z" transform="translate(-232.93 -100.25)"/><path class="cls-2" d="M437.84,453c-28.56-32.55-75.63-46.83-124.28-6.14-37.25,31.15-8.64,58.43,9.25,83.95,23.67,33.76,56.37,48.06,109.33,8.24C476.53,505.64,461.48,479.9,437.84,453Z" transform="translate(-232.93 -100.25)"/></svg>