<svg id="Слой_1" data-name="Слой 1" xmlns="http://www.w3.org/2000/svg" viewBox="0 0 165.65 172.03"><defs><style>.cls-1{fill:none;stroke:#000;stroke-linecap:round;stroke-miterlimit:10;stroke-width:3px;}.cls-2{fill:#fff;}</style></defs><line class="cls-1" x1="12.07" y1="18.82" x2="153.49" y2="160.24"/><line class="cls-1" x1="153.49" y1="18.82" x2="12.07" y2="160.24"/><path class="cls-2" d="M390.62,228.5a1.4,1.4,0,0,1-1.21-2.1l20.92-36.23a1.4,1.4,0,0,1,2.43,0l20.92,36.23a1.4,1.4,0,0,1-1.21,2.1Z" transform="translate(-328.72 -187.97)"/><path d="M411.63,190.91h0m-.09.16L432.29,227H390.8l20.74-35.93m0-3.1a2.87,2.87,0,0,0-2.51,1.45l-20.92,36.23a2.9,2.9,0,0,0,2.51,4.35h41.85a2.9,2.9,0,0,0,2.51-4.35l-20.93-36.23a2.85,2.85,0,0,0-2.51-1.45Z" transform="translate(-328.72 -187.97)"/><path class="cls-2" d="M331.62,290.5a1.4,1.4,0,0,1-1.21-2.1l20.92-36.23a1.4,1.4,0,0,1,2.43,0l20.92,36.23a1.4,1.4,0,0,1-1.21,2.1Z" transform="translate(-328.72 -187.97)"/><path d="M352.63,252.91h0m-.09.16L373.29,289H331.8l20.74-35.93m0-3.1a2.87,2.87,0,0,0-2.51,1.45l-20.92,36.23a2.9,2.9,0,0,0,2.51,4.35h41.85a2.9,2.9,0,0,0,2.51-4.35l-20.93-36.23a2.85,2.85,0,0,0-2.51-1.45Z" transform="translate(-328.72 -187.97)"/><path class="cls-2" d="M470.54,297.58a1.38,1.38,0,0,1-1.21-.7l-20.92-36.24a1.4,1.4,0,0,1,1.21-2.09h41.85a1.4,1.4,0,0,1,1.21,2.09l-20.92,36.24A1.39,1.39,0,0,1,470.54,297.58Z" transform="translate(-328.72 -187.97)"/><path d="M449.8,260.05h41.49L470.54,296,449.8,260.05m-.18-3a2.9,2.9,0,0,0-2.51,4.34L468,297.63a2.9,2.9,0,0,0,5,0L494,261.39a2.9,2.9,0,0,0-2.51-4.34Z" transform="translate(-328.72 -187.97)"/><line class="cls-1" x1="57.78" y1="15.53" x2="107.78" y2="15.53"/><path class="cls-2" d="M411.46,358.5a1.39,1.39,0,0,1-1.22-.7l-20.92-36.24a1.4,1.4,0,0,1,1.21-2.09h41.85a1.4,1.4,0,0,1,1.21,2.09L412.67,357.8A1.38,1.38,0,0,1,411.46,358.5Z" transform="translate(-328.72 -187.97)"/><path d="M390.71,321H432.2L411.46,356.9,390.71,321m-.18-3a2.9,2.9,0,0,0-2.51,4.35L409,358.55a2.9,2.9,0,0,0,5,0l20.92-36.23a2.9,2.9,0,0,0-2.51-4.35Z" transform="translate(-328.72 -187.97)"/><line class="cls-1" x1="107.78" y1="156.5" x2="57.78" y2="156.5"/></svg>